<svg xmlns="http://www.w3.org/2000/svg" width="296.24" height="39.28" viewBox="0 0 296.24 39.28">
  <g id="logo" transform="translate(-116.848 -45.008)">
    <path id="bharath-vidya-mandir" d="M1.9-16.992H8.52a7.983,7.983,0,0,1,1.9.228,4.86,4.86,0,0,1,1.668.744,3.977,3.977,0,0,1,1.188,1.332,3.977,3.977,0,0,1,.456,1.968,3.485,3.485,0,0,1-.816,2.376A4.538,4.538,0,0,1,10.776-9v.048a4.394,4.394,0,0,1,1.476.444,3.911,3.911,0,0,1,1.164.888,4.1,4.1,0,0,1,.756,1.248,4.159,4.159,0,0,1,.276,1.524A4.452,4.452,0,0,1,13.9-2.532a4.381,4.381,0,0,1-1.452,1.488,6.213,6.213,0,0,1-2.064.8A11.676,11.676,0,0,1,8.016,0H1.9ZM4.92-10.08H7.68a3.658,3.658,0,0,0,2.268-.588,1.867,1.867,0,0,0,.756-1.548,1.864,1.864,0,0,0-.78-1.644,4.506,4.506,0,0,0-2.508-.54H4.92Zm0,7.488H7.7A11.434,11.434,0,0,0,8.94-2.664,3.723,3.723,0,0,0,10.152-3a2.391,2.391,0,0,0,.912-.756,2.211,2.211,0,0,0,.36-1.332,2,2,0,0,0-.876-1.872,5.436,5.436,0,0,0-2.724-.528H4.92Zm12.528-14.4h3.024v6.768h7.944v-6.768H31.44V0H28.416V-7.488H20.472V0H17.448Zm23.28,0h2.616L50.664,0H47.208L45.624-3.888H38.256L36.72,0H33.336ZM44.568-6.48l-2.616-6.912L39.288-6.48ZM52.56-16.992h5.9a12.028,12.028,0,0,1,2.364.228,6.053,6.053,0,0,1,2.028.78A4.08,4.08,0,0,1,64.272-14.5,4.792,4.792,0,0,1,64.8-12.12a4.732,4.732,0,0,1-1.02,3.1,4.375,4.375,0,0,1-2.916,1.512L65.376,0H61.728L57.792-7.2H55.584V0H52.56Zm5.376,7.2q.648,0,1.3-.06a3.98,3.98,0,0,0,1.188-.288,2.027,2.027,0,0,0,.876-.7,2.212,2.212,0,0,0,.336-1.308,2.087,2.087,0,0,0-.312-1.2,1.939,1.939,0,0,0-.816-.684,3.756,3.756,0,0,0-1.116-.3A10.169,10.169,0,0,0,58.2-14.4H55.584v4.608Zm15.24-7.2h2.616L83.112,0H79.656L78.072-3.888H70.7L69.168,0H65.784ZM77.016-6.48,74.4-13.392,71.736-6.48Zm9.264-7.776H81.072v-2.736h13.44v2.736H89.3V0H86.28Zm10.3-2.736H99.6v6.768h7.944v-6.768h3.024V0h-3.024V-7.488H99.6V0H96.576Zm22.92,0h3.48l4.632,12.84,4.776-12.84h3.264L128.784,0h-2.616Zm17.9,0h3.024V0H137.4Zm6.744,0h6.7a10.25,10.25,0,0,1,3.24.516,7.872,7.872,0,0,1,2.76,1.572,7.681,7.681,0,0,1,1.92,2.652,9.067,9.067,0,0,1,.72,3.756,8.107,8.107,0,0,1-.828,3.78,8.092,8.092,0,0,1-2.136,2.64,9.109,9.109,0,0,1-2.9,1.56A10.145,10.145,0,0,1,150.48,0h-6.336Zm5.28,14.256A10.71,10.71,0,0,0,152.1-3.06a6.366,6.366,0,0,0,2.2-1.008,4.786,4.786,0,0,0,1.476-1.776,5.937,5.937,0,0,0,.54-2.652,6.594,6.594,0,0,0-.48-2.64,4.591,4.591,0,0,0-1.332-1.788,5.558,5.558,0,0,0-2.016-1.008,9.512,9.512,0,0,0-2.556-.324h-2.76v11.52Zm17.088-4.536-6.384-9.72h3.792l4.176,6.768,4.224-6.768h3.6l-6.384,9.72V0h-3.024Zm14.688-9.72h2.616L191.136,0H187.68L186.1-3.888h-7.368L177.192,0h-3.384ZM185.04-6.48l-2.616-6.912L179.76-6.48Zm15.168-10.512h4.608l4.536,11.9,4.584-11.9h4.56V0h-2.88V-14.112h-.048L210.408,0H208.3l-5.16-14.112h-.048V0h-2.88Zm27.648,0h2.616L237.792,0h-3.456l-1.584-3.888h-7.368L223.848,0h-3.384ZM231.7-6.48l-2.616-6.912L226.416-6.48Zm7.992-10.512H243.7l8.232,12.624h.048V-16.992H255V0h-3.84l-8.4-13.032h-.048V0h-3.024Zm19.1,0h6.7a10.25,10.25,0,0,1,3.24.516,7.872,7.872,0,0,1,2.76,1.572,7.682,7.682,0,0,1,1.92,2.652,9.067,9.067,0,0,1,.72,3.756,8.107,8.107,0,0,1-.828,3.78,8.092,8.092,0,0,1-2.136,2.64,9.109,9.109,0,0,1-2.9,1.56A10.146,10.146,0,0,1,265.128,0h-6.336Zm5.28,14.256a10.71,10.71,0,0,0,2.676-.324,6.366,6.366,0,0,0,2.2-1.008,4.786,4.786,0,0,0,1.476-1.776,5.937,5.937,0,0,0,.54-2.652,6.594,6.594,0,0,0-.48-2.64,4.591,4.591,0,0,0-1.332-1.788,5.558,5.558,0,0,0-2.016-1.008,9.512,9.512,0,0,0-2.556-.324h-2.76v11.52Zm12.864-14.256h3.024V0h-3.024Zm6.744,0h5.9a12.028,12.028,0,0,1,2.364.228,6.054,6.054,0,0,1,2.028.78,4.08,4.08,0,0,1,1.416,1.488,4.792,4.792,0,0,1,.528,2.376,4.732,4.732,0,0,1-1.02,3.1,4.375,4.375,0,0,1-2.916,1.512L296.5,0h-3.648l-3.936-7.2H286.7V0H283.68Zm5.376,7.2q.648,0,1.3-.06a3.98,3.98,0,0,0,1.188-.288,2.027,2.027,0,0,0,.876-.7,2.212,2.212,0,0,0,.336-1.308,2.087,2.087,0,0,0-.312-1.2,1.939,1.939,0,0,0-.816-.684,3.756,3.756,0,0,0-1.116-.3,10.168,10.168,0,0,0-1.188-.072H286.7v4.608Z" transform="translate(116 62)" fill="#3e3e3e"/>
    <path id="senior-secondary-school" d="M1.856-2.1a2.709,2.709,0,0,0,1.08,1.072,3.179,3.179,0,0,0,1.512.352,3.022,3.022,0,0,0,.992-.16,2.528,2.528,0,0,0,.808-.448,2.106,2.106,0,0,0,.544-.7,2.063,2.063,0,0,0,.2-.92,1.767,1.767,0,0,0-.248-.976A1.987,1.987,0,0,0,6.08-4.5a4.875,4.875,0,0,0-.936-.424Q4.624-5.1,4.072-5.28T3-5.68a3.592,3.592,0,0,1-.936-.584,2.6,2.6,0,0,1-.664-.9,3.235,3.235,0,0,1-.248-1.344,2.915,2.915,0,0,1,.3-1.336,2.853,2.853,0,0,1,.8-.976,3.561,3.561,0,0,1,1.16-.592,4.692,4.692,0,0,1,1.376-.2,4.451,4.451,0,0,1,1.72.328,3.268,3.268,0,0,1,1.368,1.1l-.912.656a2.677,2.677,0,0,0-.936-.84,2.713,2.713,0,0,0-1.272-.28,3.453,3.453,0,0,0-.976.136,2.439,2.439,0,0,0-.808.4,1.97,1.97,0,0,0-.552.664,2.02,2.02,0,0,0-.208.944,1.824,1.824,0,0,0,.432,1.3,3.046,3.046,0,0,0,1.08.72,11.468,11.468,0,0,0,1.408.464,6.816,6.816,0,0,1,1.408.536,3.038,3.038,0,0,1,1.08.936A2.789,2.789,0,0,1,8.048-2.9a3.071,3.071,0,0,1-.288,1.36,2.992,2.992,0,0,1-.776,1A3.356,3.356,0,0,1,5.856.08,4.269,4.269,0,0,1,4.528.288,5.33,5.33,0,0,1,2.464-.1,3.777,3.777,0,0,1,.848-1.424Zm11.68-9.232h6.928v.96H14.592v4.032h5.5v.96h-5.5V-.96H20.72V0H13.536Zm12.576,0h1.36l6.9,9.92H34.4v-9.92h1.056V0H34.1L27.2-9.92h-.032V0H26.112Zm15.536,0H42.7V0H41.648ZM48.16-5.664a6.4,6.4,0,0,1,.432-2.384,5.675,5.675,0,0,1,1.2-1.88,5.446,5.446,0,0,1,1.848-1.24,6.142,6.142,0,0,1,2.376-.448,6.142,6.142,0,0,1,2.376.448,5.446,5.446,0,0,1,1.848,1.24,5.675,5.675,0,0,1,1.2,1.88,6.4,6.4,0,0,1,.432,2.384,6.467,6.467,0,0,1-.432,2.392,5.657,5.657,0,0,1-1.2,1.888A5.351,5.351,0,0,1,56.392-.152a6.24,6.24,0,0,1-2.376.44,6.24,6.24,0,0,1-2.376-.44,5.351,5.351,0,0,1-1.848-1.232,5.657,5.657,0,0,1-1.2-1.888A6.467,6.467,0,0,1,48.16-5.664Zm1.056,0A5.649,5.649,0,0,0,49.552-3.7a4.673,4.673,0,0,0,.96,1.584,4.439,4.439,0,0,0,1.512,1.056,4.97,4.97,0,0,0,1.992.384,4.97,4.97,0,0,0,1.992-.384A4.439,4.439,0,0,0,57.52-2.112,4.673,4.673,0,0,0,58.48-3.7a5.649,5.649,0,0,0,.336-1.968,5.649,5.649,0,0,0-.336-1.968,4.673,4.673,0,0,0-.96-1.584,4.439,4.439,0,0,0-1.512-1.056,4.97,4.97,0,0,0-1.992-.384,4.97,4.97,0,0,0-1.992.384,4.439,4.439,0,0,0-1.512,1.056,4.673,4.673,0,0,0-.96,1.584A5.649,5.649,0,0,0,49.216-5.664Zm17.168-.672h2.24a3.692,3.692,0,0,0,1.352-.208,2.242,2.242,0,0,0,.808-.512,1.62,1.62,0,0,0,.392-.656,2.278,2.278,0,0,0,.1-.64,2.278,2.278,0,0,0-.1-.64,1.62,1.62,0,0,0-.392-.656,2.242,2.242,0,0,0-.808-.512,3.692,3.692,0,0,0-1.352-.208h-2.24Zm-1.056-4.992H68.3q.224,0,.608.016a6.232,6.232,0,0,1,.832.1,5.1,5.1,0,0,1,.912.256,2.581,2.581,0,0,1,.832.512A2.658,2.658,0,0,1,72.1-9.6a2.926,2.926,0,0,1,.24,1.248,2.854,2.854,0,0,1-.28,1.344,2.606,2.606,0,0,1-.7.856,2.961,2.961,0,0,1-.936.488,6.056,6.056,0,0,1-.976.224L72.736,0h-1.2L68.352-5.376H66.384V0H65.328ZM85.456-2.1a2.709,2.709,0,0,0,1.08,1.072,3.179,3.179,0,0,0,1.512.352,3.022,3.022,0,0,0,.992-.16,2.528,2.528,0,0,0,.808-.448,2.106,2.106,0,0,0,.544-.7,2.063,2.063,0,0,0,.2-.92,1.767,1.767,0,0,0-.248-.976A1.987,1.987,0,0,0,89.68-4.5a4.875,4.875,0,0,0-.936-.424q-.52-.176-1.072-.352T86.6-5.68a3.592,3.592,0,0,1-.936-.584,2.6,2.6,0,0,1-.664-.9,3.235,3.235,0,0,1-.248-1.344,2.915,2.915,0,0,1,.3-1.336,2.853,2.853,0,0,1,.8-.976,3.561,3.561,0,0,1,1.16-.592,4.692,4.692,0,0,1,1.376-.2,4.451,4.451,0,0,1,1.72.328,3.268,3.268,0,0,1,1.368,1.1l-.912.656a2.677,2.677,0,0,0-.936-.84,2.713,2.713,0,0,0-1.272-.28,3.453,3.453,0,0,0-.976.136,2.439,2.439,0,0,0-.808.4,1.97,1.97,0,0,0-.552.664,2.02,2.02,0,0,0-.208.944,1.824,1.824,0,0,0,.432,1.3,3.046,3.046,0,0,0,1.08.72,11.468,11.468,0,0,0,1.408.464,6.816,6.816,0,0,1,1.408.536,3.038,3.038,0,0,1,1.08.936A2.789,2.789,0,0,1,91.648-2.9a3.072,3.072,0,0,1-.288,1.36,2.992,2.992,0,0,1-.776,1A3.356,3.356,0,0,1,89.456.08a4.269,4.269,0,0,1-1.328.208A5.33,5.33,0,0,1,86.064-.1a3.777,3.777,0,0,1-1.616-1.32Zm11.68-9.232h6.928v.96H98.192v4.032h5.5v.96h-5.5V-.96h6.128V0H97.136Zm21.9,9.552a4.8,4.8,0,0,1-1.888,1.584,5.611,5.611,0,0,1-2.32.48,6.24,6.24,0,0,1-2.376-.44,5.351,5.351,0,0,1-1.848-1.232,5.657,5.657,0,0,1-1.2-1.888,6.466,6.466,0,0,1-.432-2.392,6.4,6.4,0,0,1,.432-2.384,5.675,5.675,0,0,1,1.2-1.88,5.446,5.446,0,0,1,1.848-1.24,6.142,6.142,0,0,1,2.376-.448,5.641,5.641,0,0,1,2.152.408,4.273,4.273,0,0,1,1.752,1.368l-.864.72a3.131,3.131,0,0,0-1.352-1.168,4.1,4.1,0,0,0-1.688-.368,4.97,4.97,0,0,0-1.992.384,4.439,4.439,0,0,0-1.512,1.056,4.673,4.673,0,0,0-.96,1.584,5.649,5.649,0,0,0-.336,1.968,5.649,5.649,0,0,0,.336,1.968,4.673,4.673,0,0,0,.96,1.584,4.439,4.439,0,0,0,1.512,1.056,4.97,4.97,0,0,0,1.992.384,4.094,4.094,0,0,0,.9-.1,4.062,4.062,0,0,0,.9-.32,4.34,4.34,0,0,0,.84-.544,3.483,3.483,0,0,0,.7-.792Zm4.288-3.888a6.4,6.4,0,0,1,.432-2.384,5.675,5.675,0,0,1,1.2-1.88,5.446,5.446,0,0,1,1.848-1.24,6.142,6.142,0,0,1,2.376-.448,6.142,6.142,0,0,1,2.376.448,5.446,5.446,0,0,1,1.848,1.24,5.675,5.675,0,0,1,1.2,1.88,6.4,6.4,0,0,1,.432,2.384,6.466,6.466,0,0,1-.432,2.392,5.657,5.657,0,0,1-1.2,1.888A5.351,5.351,0,0,1,131.56-.152a6.24,6.24,0,0,1-2.376.44,6.24,6.24,0,0,1-2.376-.44,5.351,5.351,0,0,1-1.848-1.232,5.657,5.657,0,0,1-1.2-1.888A6.466,6.466,0,0,1,123.328-5.664Zm1.056,0A5.649,5.649,0,0,0,124.72-3.7a4.673,4.673,0,0,0,.96,1.584,4.439,4.439,0,0,0,1.512,1.056,4.97,4.97,0,0,0,1.992.384,4.97,4.97,0,0,0,1.992-.384,4.439,4.439,0,0,0,1.512-1.056,4.673,4.673,0,0,0,.96-1.584,5.649,5.649,0,0,0,.336-1.968,5.649,5.649,0,0,0-.336-1.968,4.673,4.673,0,0,0-.96-1.584,4.439,4.439,0,0,0-1.512-1.056,4.97,4.97,0,0,0-1.992-.384,4.97,4.97,0,0,0-1.992.384,4.439,4.439,0,0,0-1.512,1.056,4.673,4.673,0,0,0-.96,1.584A5.649,5.649,0,0,0,124.384-5.664ZM140.5-11.328h1.36l6.9,9.92h.032v-9.92h1.056V0h-1.36l-6.9-9.92h-.032V0H140.5Zm15.392,0h3.5a7.574,7.574,0,0,1,2.5.36,5.551,5.551,0,0,1,1.7.92,4.566,4.566,0,0,1,1.072,1.24,6.068,6.068,0,0,1,.576,1.3,6.071,6.071,0,0,1,.232,1.128q.048.5.048.712t-.048.712a6.071,6.071,0,0,1-.232,1.128,6.068,6.068,0,0,1-.576,1.3,4.566,4.566,0,0,1-1.072,1.24,5.551,5.551,0,0,1-1.7.92,7.574,7.574,0,0,1-2.5.36h-3.5ZM156.944-.96h2.176a7.571,7.571,0,0,0,2.1-.28,4.8,4.8,0,0,0,1.7-.856,4.032,4.032,0,0,0,1.136-1.464,4.92,4.92,0,0,0,.416-2.1,4.92,4.92,0,0,0-.416-2.1,4.032,4.032,0,0,0-1.136-1.464,4.8,4.8,0,0,0-1.7-.856,7.571,7.571,0,0,0-2.1-.28h-2.176Zm17.5-10.368h1.088L180.3,0H179.12l-1.232-3.008h-6L170.608,0h-1.1Zm.5,1.152L172.3-3.968h5.2Zm11.136,3.84h2.24a3.692,3.692,0,0,0,1.352-.208,2.242,2.242,0,0,0,.808-.512,1.62,1.62,0,0,0,.392-.656,2.278,2.278,0,0,0,.1-.64,2.278,2.278,0,0,0-.1-.64,1.62,1.62,0,0,0-.392-.656,2.242,2.242,0,0,0-.808-.512,3.692,3.692,0,0,0-1.352-.208h-2.24Zm-1.056-4.992H188q.224,0,.608.016a6.232,6.232,0,0,1,.832.1,5.1,5.1,0,0,1,.912.256,2.581,2.581,0,0,1,.832.512,2.658,2.658,0,0,1,.608.848,2.926,2.926,0,0,1,.24,1.248,2.854,2.854,0,0,1-.28,1.344,2.605,2.605,0,0,1-.7.856,2.961,2.961,0,0,1-.936.488,6.056,6.056,0,0,1-.976.224l3.3,5.44h-1.2l-3.184-5.376H186.08V0h-1.056ZM199.9-4.88l-4.16-6.448h1.264l3.424,5.376,3.5-5.376h1.184L200.96-4.88V0H199.9ZM217.216-2.1a2.709,2.709,0,0,0,1.08,1.072,3.179,3.179,0,0,0,1.512.352,3.022,3.022,0,0,0,.992-.16,2.528,2.528,0,0,0,.808-.448,2.106,2.106,0,0,0,.544-.7,2.063,2.063,0,0,0,.2-.92,1.767,1.767,0,0,0-.248-.976,1.987,1.987,0,0,0-.664-.632,4.875,4.875,0,0,0-.936-.424q-.52-.176-1.072-.352t-1.072-.4a3.592,3.592,0,0,1-.936-.584,2.6,2.6,0,0,1-.664-.9,3.235,3.235,0,0,1-.248-1.344,2.915,2.915,0,0,1,.3-1.336,2.853,2.853,0,0,1,.8-.976,3.561,3.561,0,0,1,1.16-.592,4.692,4.692,0,0,1,1.376-.2,4.451,4.451,0,0,1,1.72.328,3.268,3.268,0,0,1,1.368,1.1l-.912.656a2.678,2.678,0,0,0-.936-.84,2.713,2.713,0,0,0-1.272-.28,3.453,3.453,0,0,0-.976.136,2.439,2.439,0,0,0-.808.4,1.97,1.97,0,0,0-.552.664,2.02,2.02,0,0,0-.208.944,1.824,1.824,0,0,0,.432,1.3,3.046,3.046,0,0,0,1.08.72,11.468,11.468,0,0,0,1.408.464,6.816,6.816,0,0,1,1.408.536,3.038,3.038,0,0,1,1.08.936,2.789,2.789,0,0,1,.432,1.656,3.071,3.071,0,0,1-.288,1.36,2.992,2.992,0,0,1-.776,1,3.355,3.355,0,0,1-1.128.616,4.269,4.269,0,0,1-1.328.208A5.33,5.33,0,0,1,217.824-.1a3.777,3.777,0,0,1-1.616-1.32Zm21.008.32a4.8,4.8,0,0,1-1.888,1.584,5.611,5.611,0,0,1-2.32.48,6.24,6.24,0,0,1-2.376-.44,5.351,5.351,0,0,1-1.848-1.232,5.656,5.656,0,0,1-1.2-1.888,6.466,6.466,0,0,1-.432-2.392,6.4,6.4,0,0,1,.432-2.384,5.675,5.675,0,0,1,1.2-1.88,5.446,5.446,0,0,1,1.848-1.24,6.142,6.142,0,0,1,2.376-.448,5.641,5.641,0,0,1,2.152.408A4.273,4.273,0,0,1,237.92-9.84l-.864.72a3.131,3.131,0,0,0-1.352-1.168,4.1,4.1,0,0,0-1.688-.368,4.97,4.97,0,0,0-1.992.384,4.439,4.439,0,0,0-1.512,1.056,4.673,4.673,0,0,0-.96,1.584,5.649,5.649,0,0,0-.336,1.968,5.649,5.649,0,0,0,.336,1.968,4.673,4.673,0,0,0,.96,1.584,4.439,4.439,0,0,0,1.512,1.056,4.97,4.97,0,0,0,1.992.384,4.094,4.094,0,0,0,.9-.1,4.062,4.062,0,0,0,.9-.32,4.34,4.34,0,0,0,.84-.544,3.482,3.482,0,0,0,.7-.792Zm5.024-9.552H244.3v4.992h6.336v-4.992H251.7V0H250.64V-5.376H244.3V0h-1.056Zm13.9,5.664a6.4,6.4,0,0,1,.432-2.384,5.675,5.675,0,0,1,1.2-1.88,5.445,5.445,0,0,1,1.848-1.24,6.142,6.142,0,0,1,2.376-.448,6.142,6.142,0,0,1,2.376.448,5.445,5.445,0,0,1,1.848,1.24,5.675,5.675,0,0,1,1.2,1.88,6.4,6.4,0,0,1,.432,2.384,6.467,6.467,0,0,1-.432,2.392,5.657,5.657,0,0,1-1.2,1.888,5.35,5.35,0,0,1-1.848,1.232,6.24,6.24,0,0,1-2.376.44,6.24,6.24,0,0,1-2.376-.44,5.35,5.35,0,0,1-1.848-1.232,5.657,5.657,0,0,1-1.2-1.888A6.467,6.467,0,0,1,257.152-5.664Zm1.056,0a5.649,5.649,0,0,0,.336,1.968,4.673,4.673,0,0,0,.96,1.584,4.439,4.439,0,0,0,1.512,1.056,4.97,4.97,0,0,0,1.992.384A4.97,4.97,0,0,0,265-1.056a4.439,4.439,0,0,0,1.512-1.056,4.673,4.673,0,0,0,.96-1.584,5.649,5.649,0,0,0,.336-1.968,5.649,5.649,0,0,0-.336-1.968,4.673,4.673,0,0,0-.96-1.584A4.439,4.439,0,0,0,265-10.272a4.97,4.97,0,0,0-1.992-.384,4.97,4.97,0,0,0-1.992.384A4.439,4.439,0,0,0,259.5-9.216a4.673,4.673,0,0,0-.96,1.584A5.649,5.649,0,0,0,258.208-5.664Zm15.376,0a6.4,6.4,0,0,1,.432-2.384,5.675,5.675,0,0,1,1.2-1.88,5.445,5.445,0,0,1,1.848-1.24,6.142,6.142,0,0,1,2.376-.448,6.142,6.142,0,0,1,2.376.448,5.445,5.445,0,0,1,1.848,1.24,5.675,5.675,0,0,1,1.2,1.88,6.4,6.4,0,0,1,.432,2.384,6.467,6.467,0,0,1-.432,2.392,5.657,5.657,0,0,1-1.2,1.888,5.35,5.35,0,0,1-1.848,1.232,6.24,6.24,0,0,1-2.376.44,6.24,6.24,0,0,1-2.376-.44,5.35,5.35,0,0,1-1.848-1.232,5.657,5.657,0,0,1-1.2-1.888A6.467,6.467,0,0,1,273.584-5.664Zm1.056,0a5.649,5.649,0,0,0,.336,1.968,4.673,4.673,0,0,0,.96,1.584,4.439,4.439,0,0,0,1.512,1.056,4.97,4.97,0,0,0,1.992.384,4.97,4.97,0,0,0,1.992-.384,4.439,4.439,0,0,0,1.512-1.056A4.673,4.673,0,0,0,283.9-3.7a5.649,5.649,0,0,0,.336-1.968,5.649,5.649,0,0,0-.336-1.968,4.673,4.673,0,0,0-.96-1.584,4.439,4.439,0,0,0-1.512-1.056,4.97,4.97,0,0,0-1.992-.384,4.97,4.97,0,0,0-1.992.384,4.439,4.439,0,0,0-1.512,1.056,4.673,4.673,0,0,0-.96,1.584A5.649,5.649,0,0,0,274.64-5.664Zm16.112-5.664h1.056V-.96h5.28V0h-6.336Z" transform="translate(116 84)" fill="#707070"/>
  </g>
</svg>
